<svg width="22" height="23" viewBox="0 0 22 23" fill="none" xmlns="http://www.w3.org/2000/svg">
<g id="Group 68">
<g id="Group">
<path id="Vector" d="M10.621 2.45225C13.457 2.45225 13.7929 2.46335 14.9128 2.51591C15.9484 2.56452 16.5108 2.74249 16.8851 2.89206C17.3808 3.09023 17.7346 3.32701 18.1063 3.70927C18.4779 4.09153 18.7081 4.45549 18.9007 4.96538C19.0462 5.35037 19.2192 5.92882 19.2665 6.9939C19.3176 8.14589 19.3284 8.49138 19.3284 11.4084C19.3284 14.3254 19.3176 14.6708 19.2665 15.8228C19.2192 16.8879 19.0462 17.4664 18.9007 17.8514C18.7081 18.3612 18.4779 18.7252 18.1063 19.1075C17.7346 19.4897 17.3808 19.7265 16.8851 19.9246C16.5108 20.0742 15.9484 20.2522 14.9128 20.3008C13.7931 20.3534 13.4572 20.3645 10.621 20.3645C7.78491 20.3645 7.44902 20.3534 6.32924 20.3008C5.2937 20.2522 4.73132 20.0742 4.35706 19.9246C3.8613 19.7265 3.50745 19.4897 3.1358 19.1075C2.76416 18.7252 2.53396 18.3612 2.34133 17.8514C2.19588 17.4664 2.02285 16.8879 1.97559 15.8228C1.92449 14.6708 1.9137 14.3254 1.9137 11.4084C1.9137 8.49138 1.92449 8.14589 1.97559 6.99395C2.02285 5.92882 2.19588 5.35037 2.34133 4.96538C2.53396 4.45549 2.76416 4.09153 3.1358 3.70927C3.50745 3.32701 3.8613 3.09023 4.35706 2.89206C4.73132 2.74249 5.2937 2.56452 6.3292 2.51591C7.44919 2.46335 7.78508 2.45225 10.621 2.45225ZM10.621 0.483826C7.73651 0.483826 7.37486 0.496402 6.24201 0.549567C5.11148 0.602646 4.33944 0.787294 3.66382 1.05737C2.96539 1.33655 2.37308 1.7101 1.78262 2.31743C1.19217 2.92475 0.828999 3.53399 0.557571 4.25237C0.294996 4.94729 0.115477 5.74139 0.063873 6.90422C0.0121843 8.0694 0 8.44142 0 11.4084C0 14.3753 0.0121843 14.7473 0.063873 15.9125C0.115477 17.0753 0.294996 17.8694 0.557571 18.5644C0.828999 19.2827 1.19217 19.892 1.78262 20.4993C2.37308 21.1066 2.96539 21.4802 3.66382 21.7594C4.33944 22.0294 5.11148 22.2141 6.24201 22.2672C7.37486 22.3203 7.73651 22.3329 10.621 22.3329C13.5056 22.3329 13.8673 22.3203 15.0001 22.2672C16.1306 22.2141 16.9026 22.0294 17.5783 21.7594C18.2767 21.4802 18.869 21.1066 19.4595 20.4993C20.0499 19.892 20.4131 19.2827 20.6845 18.5644C20.9471 17.8694 21.1266 17.0753 21.1782 15.9125C21.2299 14.7473 21.2421 14.3753 21.2421 11.4084C21.2421 8.44142 21.2299 8.0694 21.1782 6.90422C21.1266 5.74139 20.9471 4.94729 20.6845 4.25237C20.4131 3.53399 20.0499 2.92475 19.4595 2.31743C18.869 1.7101 18.2767 1.33655 17.5783 1.05737C16.9026 0.787294 16.1306 0.602646 15.0001 0.549567C13.8673 0.496402 13.5056 0.483826 10.621 0.483826ZM10.621 5.79846C7.60885 5.79846 5.16696 8.31012 5.16696 11.4084C5.16696 14.5066 7.60885 17.0183 10.621 17.0183C13.6332 17.0183 16.0751 14.5066 16.0751 11.4084C16.0751 8.31012 13.6332 5.79846 10.621 5.79846ZM10.621 15.0499C8.66577 15.0499 7.08067 13.4195 7.08067 11.4084C7.08067 9.39723 8.66577 7.76684 10.621 7.76684C12.5763 7.76684 14.1614 9.39723 14.1614 11.4084C14.1614 13.4195 12.5763 15.0499 10.621 15.0499ZM17.5651 5.57682C17.5651 6.30084 16.9945 6.88779 16.2906 6.88779C15.5867 6.88779 15.016 6.30084 15.016 5.57682C15.016 4.8528 15.5867 4.2659 16.2906 4.2659C16.9945 4.2659 17.5651 4.8528 17.5651 5.57682Z" fill="#D9D9D9"/>
</g>
</g>
</svg>
