<svg width="97" height="57" viewBox="0 0 97 57" fill="none" xmlns="http://www.w3.org/2000/svg">
<g id="JCB">
<path id="path6325" d="M96.7104 45.0549C96.7104 51.2668 89.9714 56.3251 81.6954 56.3251H0V11.6883C0 5.4764 6.73899 0.418152 15.0149 0.418152H96.7104V45.0549Z" fill="white"/>
<g id="g6327">
<path id="path6338" d="M70.1094 33.6091H76.3163C76.4937 33.6091 76.9075 33.5647 77.0848 33.5647C78.2671 33.3872 79.272 32.5885 79.272 31.4793C79.272 30.4144 78.2671 29.6157 77.0848 29.3939C76.9075 29.3495 76.5528 29.3495 76.3163 29.3495H70.1094V33.6091Z" fill="url(#paint0_linear_811_385)"/>
<path id="path6349" d="M75.603 4.19238C69.6916 4.19238 64.8443 7.7864 64.8443 12.2678V20.6539H80.0366C80.3912 20.6539 80.805 20.6539 81.1006 20.6982C84.5292 20.8313 87.0711 22.1625 87.0711 24.4697C87.0711 26.2889 85.3568 27.8419 82.1646 28.1525V28.2412C85.6524 28.4187 88.3125 29.8829 88.3125 32.1458C88.3125 34.5862 85.3568 36.1836 81.4553 36.1836H64.7852V52.6007H80.5686C86.48 52.6007 91.3273 49.0067 91.3273 44.5252V4.19238H75.603Z" fill="url(#paint1_linear_811_385)"/>
<path id="path6360" d="M78.5036 25.0013C78.5036 23.9364 77.4986 23.2265 76.3163 23.0934C76.1981 23.0934 75.9025 23.049 75.7252 23.049H70.1094V26.9536H75.7252C75.9025 26.9536 76.2572 26.9536 76.3163 26.9092C77.4986 26.7761 78.5036 26.0662 78.5036 25.0013Z" fill="url(#paint2_linear_811_385)"/>
</g>
<path id="path6371" d="M16.1382 4.18985C10.2268 4.18985 5.37943 7.78387 5.37943 12.2653V32.1877C8.39424 33.2969 11.5273 34.0069 14.6603 34.0069C18.3845 34.0069 20.3944 32.3208 20.3944 30.0135V20.607H29.6161V29.9691C29.6161 33.6075 26.6013 36.5804 16.3746 36.5804C10.1677 36.5804 5.32031 35.5598 5.32031 35.5598V52.5538H21.1037C27.0151 52.5538 31.8625 48.9598 31.8625 44.4783V4.18985H16.1382Z" fill="url(#paint3_linear_811_385)"/>
<path id="path6384" d="M45.8681 4.18985C39.9567 4.18985 35.1094 7.78387 35.1094 12.2653V22.8255C37.8286 21.095 42.5577 19.9858 50.1834 20.252C54.2623 20.3851 58.6367 21.2281 58.6367 21.2281V24.6447C56.4495 23.8016 53.8485 23.0473 50.479 22.8699C44.6858 22.5593 41.1981 24.6891 41.1981 28.4162C41.1981 32.1877 44.6858 34.3175 50.479 33.9625C53.8485 33.785 56.4495 32.9863 58.6367 32.1877V35.6042C58.6367 35.6042 54.3214 36.4472 50.1834 36.5804C42.5577 36.8466 37.8286 35.7373 35.1094 34.0069V52.6425H50.8928C56.8042 52.6425 61.6515 49.0485 61.6515 44.5671V4.18985H45.8681Z" fill="url(#paint4_linear_811_385)"/>
</g>
<defs>
<linearGradient id="paint0_linear_811_385" x1="64.8384" y1="31.4846" x2="91.4026" y2="31.4846" gradientUnits="userSpaceOnUse">
<stop stop-color="#007940"/>
<stop offset="0.2285" stop-color="#00873F"/>
<stop offset="0.7433" stop-color="#40A737"/>
<stop offset="1" stop-color="#5CB531"/>
</linearGradient>
<linearGradient id="paint1_linear_811_385" x1="64.8336" y1="28.3772" x2="91.3999" y2="28.3772" gradientUnits="userSpaceOnUse">
<stop stop-color="#007940"/>
<stop offset="0.2285" stop-color="#00873F"/>
<stop offset="0.7433" stop-color="#40A737"/>
<stop offset="1" stop-color="#5CB531"/>
</linearGradient>
<linearGradient id="paint2_linear_811_385" x1="64.8377" y1="24.9957" x2="91.403" y2="24.9957" gradientUnits="userSpaceOnUse">
<stop stop-color="#007940"/>
<stop offset="0.2285" stop-color="#00873F"/>
<stop offset="0.7433" stop-color="#40A737"/>
<stop offset="1" stop-color="#5CB531"/>
</linearGradient>
<linearGradient id="paint3_linear_811_385" x1="5.36691" y1="28.3746" x2="32.3424" y2="28.3746" gradientUnits="userSpaceOnUse">
<stop stop-color="#1F286F"/>
<stop offset="0.4751" stop-color="#004E94"/>
<stop offset="0.8261" stop-color="#0066B1"/>
<stop offset="1" stop-color="#006FBC"/>
</linearGradient>
<linearGradient id="paint4_linear_811_385" x1="34.9565" y1="28.3746" x2="61.156" y2="28.3746" gradientUnits="userSpaceOnUse">
<stop stop-color="#6C2C2F"/>
<stop offset="0.1735" stop-color="#882730"/>
<stop offset="0.5731" stop-color="#BE1833"/>
<stop offset="0.8585" stop-color="#DC0436"/>
<stop offset="1" stop-color="#E60039"/>
</linearGradient>
</defs>
</svg>
