<svg width="22" height="23" viewBox="0 0 22 23" fill="none" xmlns="http://www.w3.org/2000/svg">
<g id="Group 69">
<path id="Vector" fill-rule="evenodd" clip-rule="evenodd" d="M2.36024 22.7825H18.8819C20.1854 22.7825 21.2421 21.6956 21.2421 20.3548V3.36114C21.2421 2.02038 20.1854 0.933472 18.8819 0.933472H2.36024C1.05671 0.933472 0 2.02038 0 3.36114V20.3548C0 21.6956 1.05671 22.7825 2.36024 22.7825Z" fill="#BBBCBF"/>
<path id="Vector_2" fill-rule="evenodd" clip-rule="evenodd" d="M18.3728 19.8348H15.2206V14.3125C15.2206 12.7984 14.6613 11.9523 13.4962 11.9523C12.2287 11.9523 11.5665 12.8328 11.5665 14.3125V19.8348H8.52863V9.31489H11.5665V10.7319C11.5665 10.7319 12.4799 8.99349 14.6503 8.99349C16.8197 8.99349 18.3728 10.3561 18.3728 13.1742V19.8348ZM4.90449 7.93739C3.86974 7.93739 3.03125 7.06817 3.03125 5.99616C3.03125 4.92415 3.86974 4.05493 4.90449 4.05493C5.93925 4.05493 6.77724 4.92415 6.77724 5.99616C6.77724 7.06817 5.93925 7.93739 4.90449 7.93739ZM3.33588 19.8348H6.50357V9.31489H3.33588V19.8348Z" fill="#525B44"/>
</g>
</svg>
