<svg width="90" height="88" viewBox="0 0 90 88" fill="none" xmlns="http://www.w3.org/2000/svg">
<g id="mastercard">
<mask id="mask0_811_378" style="mask-type:luminance" maskUnits="userSpaceOnUse" x="0" y="0" width="90" height="88">
<g id="clip0">
<path id="Vector" d="M89.8336 0.672455H0V87.4182H89.8336V0.672455Z" fill="white"/>
</g>
</mask>
<g mask="url(#mask0_811_378)">
<g id="Group">
<path id="Vector_2" d="M57.0632 22.9757H32.7734V65.1199H57.0632V22.9757Z" fill="#FF5F00"/>
<path id="Vector_3" d="M34.314 44.0474C34.314 35.4845 38.478 27.8897 44.8782 22.9753C40.1744 19.4013 34.237 17.2419 27.7597 17.2419C12.4148 17.2419 0 29.23 0 44.0474C0 58.8649 12.4148 70.8529 27.7597 70.8529C34.237 70.8529 40.1744 68.6936 44.8782 65.1195C38.478 60.2797 34.314 52.6103 34.314 44.0474Z" fill="#EB001B"/>
<path id="Vector_4" d="M89.8315 44.0474C89.8315 58.8649 77.4166 70.8529 62.0716 70.8529C55.5943 70.8529 49.6569 68.6936 44.9531 65.1195C51.4304 60.2052 55.5173 52.6103 55.5173 44.0474C55.5173 35.4845 51.3533 27.8897 44.9531 22.9753C49.6569 19.4013 55.5943 17.2419 62.0716 17.2419C77.4166 17.2419 89.8315 29.3044 89.8315 44.0474Z" fill="#F79E1B"/>
</g>
</g>
</g>
</svg>
