<svg width="74" height="78" viewBox="0 0 74 78" fill="none" xmlns="http://www.w3.org/2000/svg">
<g id="Paypal">
<g id="Group 740">
<path id="Vector" d="M62.4667 6.56237C58.4584 2.52501 51.2115 0.793732 41.9417 0.793732H15.0371C14.1198 0.79372 13.2326 1.08293 12.535 1.60934C11.8374 2.13575 11.3752 2.86484 11.2316 3.66547L0.0290708 66.4501C-0.193599 67.6882 0.89127 68.8096 2.31129 68.8096H18.9209L23.0924 45.4279L22.9632 46.1601C23.2601 44.5076 24.8599 43.2886 26.7541 43.2886H34.6471C50.1528 43.2886 62.2938 37.7228 65.8407 21.623C65.946 21.1468 66.0369 20.6833 66.116 20.2306C65.6681 20.0211 65.6681 20.0211 66.116 20.2306C67.1718 14.2799 66.1088 10.2293 62.4664 6.56212" fill="#27346A"/>
<path id="Vector_2" d="M29.4485 18.0872C29.9025 17.8962 30.3991 17.7971 30.9019 17.7974H51.9946C54.4923 17.7974 56.8223 17.941 58.9512 18.2438C59.5619 18.3305 60.1537 18.4299 60.7282 18.5443C61.5626 18.707 62.3873 18.9061 63.1994 19.141C64.246 19.4501 65.2207 19.8096 66.1163 20.2308C67.1721 14.2781 66.1091 10.2296 62.4667 6.56237C58.4555 2.52501 51.2115 0.793732 41.9416 0.793732H15.0345C13.1404 0.793732 11.5288 2.01274 11.2319 3.66547L0.0290723 66.4483C-0.193598 67.6882 0.891271 68.8075 2.30899 68.8075H18.9209L27.5757 20.3094C27.6608 19.8327 27.8758 19.3813 28.202 18.9943C28.5282 18.6072 28.956 18.2958 29.4485 18.0872Z" fill="#27346A"/>
</g>
<g id="Group 739">
<path id="Vector_3" d="M65.8537 21.6212C62.3071 37.719 50.1659 43.2868 34.6601 43.2868H26.7648C24.8704 43.2868 23.2708 44.5056 22.9763 46.1583L17.787 75.2306C17.5931 76.3138 18.5413 77.2959 19.7818 77.2959H33.7835C34.5856 77.2957 35.3613 77.0427 35.971 76.5822C36.5808 76.1218 36.9847 75.4842 37.11 74.7842L37.2464 74.1534L39.8854 59.374L40.0554 58.5572C40.1807 57.8571 40.5845 57.2195 41.1942 56.759C41.8039 56.2986 42.5796 56.0454 43.3816 56.0452H45.4771C59.0407 56.0452 69.6613 51.1757 72.7648 37.0926C74.0603 31.2076 73.3897 26.2939 69.9628 22.8422C68.9236 21.7969 67.6328 20.9335 66.1291 20.2288C66.0476 20.6839 65.959 21.145 65.8537 21.6212Z" fill="#2790C3"/>
<path id="Vector_4" d="M62.4111 18.9237C61.858 18.781 61.2997 18.6547 60.7371 18.5449C60.1482 18.4305 59.5557 18.3309 58.9603 18.2464C56.8288 17.9416 54.5012 17.7977 52.0012 17.7977H30.9108C30.4076 17.7968 29.9106 17.8968 29.4574 18.0901C28.9644 18.2981 28.5362 18.6091 28.2099 18.9963C27.8835 19.3834 27.6689 19.835 27.5846 20.312L23.1021 45.4288L22.9727 46.1609C23.2672 44.5085 24.8671 43.2895 26.7615 43.2895H34.6565C50.1623 43.2895 62.3035 37.7237 65.8501 21.6238C65.9554 21.1477 66.044 20.6865 66.1255 20.2314C65.2276 19.8125 64.2555 19.4507 63.2089 19.1439C62.9477 19.0676 62.6815 18.9936 62.4111 18.9237Z" fill="#1F264F"/>
</g>
</g>
</svg>
