<svg width="104" height="57" viewBox="0 0 104 57" fill="none" xmlns="http://www.w3.org/2000/svg">
<path id="Vector" d="M53.4657 18.76C53.4067 26.5476 57.61 30.8938 60.7764 33.4775C64.0297 36.1289 65.1224 37.8288 65.11 40.1995C65.0852 43.8282 62.5148 45.4294 60.109 45.4917C55.9119 45.6009 53.4719 43.5942 51.5317 42.0762L50.0199 53.924C51.9663 55.4265 55.5704 56.7365 59.308 56.7937C68.0809 56.7937 73.8207 49.5415 73.8518 38.2967C73.8859 24.0263 62.0647 23.2361 62.1454 16.8573C62.1733 14.9233 63.2754 12.8594 65.6905 12.3344C66.8857 12.0692 70.1856 11.8665 73.9263 14.7518L75.3946 3.28862C73.383 2.06173 70.7971 0.886822 67.578 0.886822C59.3205 0.886822 53.5123 8.23779 53.4657 18.76ZM89.5038 1.87457C87.9019 1.87457 86.5516 3.43939 85.9493 5.84119L73.4172 55.9515H82.1838L83.9284 47.8779H94.6414L95.6534 55.9515H103.38L96.6375 1.87457H89.5038ZM90.73 16.4829L93.26 36.7891H86.3312L90.73 16.4829ZM42.8365 1.87457L35.9263 55.9515H44.28L51.1871 1.87457H42.8365ZM30.4782 1.87457L21.783 38.6814L18.2658 7.3852C17.8529 3.89167 16.2232 1.87457 14.4134 1.87457H0.198677L0 3.44458C2.91806 4.50512 6.23348 6.2155 8.24197 8.04544C9.47128 9.16317 9.82207 10.1405 10.2256 12.7971L16.8875 55.9515H25.7162L39.251 1.87457H30.4782Z" fill="url(#paint0_linear_811_394)"/>
<defs>
<linearGradient id="paint0_linear_811_394" x1="4752.82" y1="168.953" x2="5023.43" y2="-5564.56" gradientUnits="userSpaceOnUse">
<stop stop-color="#222357"/>
<stop offset="1" stop-color="#254AA5"/>
</linearGradient>
</defs>
</svg>
