<svg width="23" height="24" viewBox="0 0 23 24" fill="none" xmlns="http://www.w3.org/2000/svg">
<path d="M11.4927 0.350586C9.12015 0.350586 6.92523 1.06644 5.09512 2.30024C4.78504 2.50915 4.48036 2.71884 4.19324 2.95613C3.91626 3.18634 3.66225 3.43784 3.40823 3.69249C3.39877 3.70116 3.38391 3.70275 3.37445 3.71222C1.29641 5.79114 0 8.65607 0 11.8277C0 14.9536 1.26601 17.7727 3.29136 19.843C3.30082 19.9274 3.30757 20.0188 3.30757 20.0819C3.30757 21.9125 2.10101 23.4041 0.568151 23.4238C1.34061 23.8015 2.16942 23.9973 3.00695 24C4.48644 24 5.81933 23.3583 6.89956 22.3492C8.36858 22.992 9.92451 23.3221 11.4934 23.3237C17.8356 23.3237 22.9699 18.1716 22.9699 11.8269C22.9699 5.48208 17.835 0.350586 11.4927 0.350586Z" fill="url(#paint0_linear_1586_11)"/>
<path d="M11.4903 2.19727C9.4053 2.19727 7.47643 2.82364 5.86816 3.90321C5.59566 4.08601 5.32791 4.26948 5.07559 4.47712C4.83219 4.67855 4.60896 4.89862 4.38574 5.12143C4.37743 5.12902 4.36437 5.13041 4.35605 5.13869C2.5299 6.95775 1.39062 9.46457 1.39062 12.2397C1.39062 14.9749 2.50318 17.4417 4.28303 19.2531C4.29134 19.3269 4.29728 19.4069 4.29728 19.4621C4.29728 21.0639 3.95579 23.2428 2.60873 23.26C3.28756 23.5905 2.91681 23.2576 3.65282 23.26C4.95297 23.26 6.11628 21.0429 6.95909 21.0429C8.25005 21.6054 10.1122 22.2973 11.4909 22.2987C17.0644 22.2987 21.5763 17.7907 21.5763 12.239C21.5763 6.68732 17.0638 2.19727 11.4903 2.19727Z" fill="url(#paint1_linear_1586_11)"/>
<path d="M8.521 13.208C8.24367 13.208 8.014 13.1083 7.832 12.909C7.65867 12.7097 7.572 12.4713 7.572 12.194C7.572 11.9167 7.66733 11.6783 7.858 11.479C8.04867 11.2797 8.26967 11.18 8.521 11.18C8.78967 11.18 9.01067 11.2797 9.184 11.479C9.366 11.6783 9.457 11.9167 9.457 12.194C9.457 12.4713 9.37033 12.7097 9.197 12.909C9.03233 13.1083 8.807 13.208 8.521 13.208ZM11.5552 13.208C11.2778 13.208 11.0482 13.1083 10.8662 12.909C10.6928 12.7097 10.6062 12.4713 10.6062 12.194C10.6062 11.9167 10.7015 11.6783 10.8922 11.479C11.0828 11.2797 11.3038 11.18 11.5552 11.18C11.8238 11.18 12.0448 11.2797 12.2182 11.479C12.4002 11.6783 12.4912 11.9167 12.4912 12.194C12.4912 12.4713 12.4045 12.7097 12.2312 12.909C12.0665 13.1083 11.8412 13.208 11.5552 13.208ZM14.5894 13.208C14.312 13.208 14.0824 13.1083 13.9004 12.909C13.727 12.7097 13.6404 12.4713 13.6404 12.194C13.6404 11.9167 13.7357 11.6783 13.9264 11.479C14.117 11.2797 14.338 11.18 14.5894 11.18C14.858 11.18 15.079 11.2797 15.2524 11.479C15.4344 11.6783 15.5254 11.9167 15.5254 12.194C15.5254 12.4713 15.4387 12.7097 15.2654 12.909C15.1007 13.1083 14.8754 13.208 14.5894 13.208Z" fill="#525B44"/>
<defs>
<linearGradient id="paint0_linear_1586_11" x1="11.4673" y1="23.7564" x2="11.4673" y2="10.6218" gradientUnits="userSpaceOnUse">
<stop stop-color="white"/>
</linearGradient>
<linearGradient id="paint1_linear_1586_11" x1="11.4679" y1="22.6773" x2="11.4679" y2="11.1845" gradientUnits="userSpaceOnUse">
<stop stop-color="white"/>
</linearGradient>
</defs>
</svg>
