<?xml version="1.0" standalone="no"?>
<!DOCTYPE svg PUBLIC "-//W3C//DTD SVG 20010904//EN"
 "http://www.w3.org/TR/2001/REC-SVG-20010904/DTD/svg10.dtd">
<svg version="1.0" xmlns="http://www.w3.org/2000/svg"
 width="499.000000pt" height="500.000000pt" viewBox="0 0 499.000000 500.000000"
 preserveAspectRatio="xMidYMid meet">

<g transform="translate(0.000000,500.000000) scale(0.100000,-0.100000)"
fill="#525B44" stroke="none">
<path d="M2375 3816 c-144 -47 -226 -96 -303 -181 -67 -73 -89 -134 -98 -274
l-7 -111 -161 -1 c-156 0 -278 -6 -303 -14 -10 -3 -13 -41 -13 -145 l0 -140
286 0 c185 0 292 -4 305 -11 31 -16 49 -66 37 -101 -21 -58 -19 -58 -421 -58
l-368 0 -24 -24 c-27 -27 -24 -58 8 -81 18 -12 72 -15 305 -15 271 0 285 -1
313 -21 41 -29 52 -54 38 -81 -28 -56 -36 -58 -279 -58 -207 0 -228 -2 -258
-20 -45 -28 -58 -60 -42 -101 25 -60 48 -63 405 -67 311 -3 321 -4 343 -25 17
-16 22 -30 20 -57 -2 -29 -9 -38 -38 -52 -32 -16 -74 -18 -427 -18 -278 0
-400 -3 -418 -12 -48 -22 -41 -89 11 -108 14 -6 149 -10 301 -10 243 0 278 -2
304 -17 34 -20 46 -54 33 -92 -16 -45 -44 -51 -242 -51 l-183 0 37 -70 c46
-89 145 -183 240 -231 l69 -34 706 0 705 0 76 38 c141 69 239 199 259 343 5
39 8 339 7 699 l-3 630 -237 3 -238 2 0 68 c0 195 -54 301 -204 401 -72 48
-116 69 -220 102 -85 28 -228 25 -321 -5z m310 -81 c94 -25 161 -60 220 -116
82 -78 104 -131 107 -259 l3 -105 -470 0 -470 0 2 104 c2 89 6 112 28 156 48
98 150 177 278 215 79 23 222 25 302 5z m-612 -557 c53 -28 61 -76 20 -114
-24 -22 -35 -25 -73 -21 -50 6 -80 34 -80 76 0 34 10 48 40 60 34 13 67 13 93
-1z m1051 -9 c32 -25 36 -77 6 -104 -31 -28 -100 -31 -132 -5 -42 32 -39 83 5
110 41 26 87 25 121 -1z m-634 -264 c0 -3 -10 -19 -22 -36 -22 -30 -23 -39
-26 -282 -3 -255 3 -312 35 -338 28 -24 9 -29 -107 -29 l-120 0 21 40 c37 71
48 252 29 484 -7 76 -13 106 -29 127 -12 16 -21 31 -21 34 0 3 54 5 120 5 66
0 120 -2 120 -5z m195 -9 c77 -20 130 -51 168 -98 39 -49 67 -115 67 -157 0
-26 4 -29 42 -35 23 -4 61 -15 85 -26 l43 -19 0 -102 c0 -56 -2 -100 -5 -98
-2 3 -15 38 -27 79 -20 64 -30 79 -67 107 -51 40 -61 41 -61 7 0 -56 -32 -164
-61 -204 -17 -23 -29 -43 -27 -45 2 -2 44 -30 93 -62 50 -33 103 -74 118 -93
62 -73 82 -150 56 -217 -34 -91 -169 -145 -307 -124 -74 11 -169 39 -189 54
-9 7 -13 42 -13 115 0 114 8 122 34 31 34 -119 109 -179 227 -179 96 0 148 43
149 123 0 86 -29 119 -190 221 -64 41 -110 64 -120 60 -29 -12 -90 -17 -90 -7
0 5 11 16 25 23 33 17 32 33 -5 79 -77 95 -35 215 95 271 l43 18 -9 49 c-14
72 -55 148 -105 191 -63 57 -59 62 31 38z"/>
<path d="M2743 2561 c-41 -34 -48 -77 -27 -153 14 -49 42 7 50 102 4 39 5 70
3 70 -2 -1 -14 -9 -26 -19z"/>
<path d="M962 2764 c-30 -21 -30 -69 0 -85 33 -18 140 -23 182 -9 61 20 73 75
20 98 -38 18 -175 15 -202 -4z"/>
<path d="M678 2144 c-22 -11 -28 -22 -28 -47 0 -28 5 -36 35 -50 46 -22 229
-24 279 -3 44 18 54 50 28 85 -19 26 -21 26 -153 28 -104 2 -140 -1 -161 -13z"/>
</g>
</svg>
