<svg width="96" height="98" viewBox="0 0 96 98" fill="none" xmlns="http://www.w3.org/2000/svg">
<circle cx="47.5" cy="43.5" r="40.5" fill="#525B44"/>
<path d="M48.0006 9C50.8624 9 53.1824 11.7311 53.1824 15.1001C53.1824 17.3571 52.146 19.3395 50.5915 20.3767V24.2502H53.1824C63.1986 24.2502 71.3183 33.8089 71.3183 45.6002H73.9092C75.34 45.6002 76.5 46.9657 76.5 48.6502V57.8C76.5 59.4844 75.34 60.8499 73.9092 60.8499H71.3183V63.8999C71.3183 67.2689 68.9984 70 66.1365 70H29.8635C27.0016 70 24.6817 67.2689 24.6817 63.8999V60.8499H22.0908C20.66 60.8499 19.5 59.4844 19.5 57.8V48.6502C19.5 46.9657 20.66 45.6002 22.0908 45.6002H24.6817C24.6817 33.8089 32.8014 24.2502 42.8176 24.2502H45.4085V20.3767C43.854 19.3397 42.8176 17.3572 42.8176 15.1001C42.8176 11.7311 45.1388 9 48.0006 9ZM36.3405 42.5498C32.7633 42.5498 29.8635 45.9636 29.8635 50.1747C29.8635 54.3859 32.7633 57.7997 36.3405 57.7997C39.9177 57.7997 42.8176 54.3859 42.8176 50.1747C42.8176 45.9636 39.9177 42.5498 36.3405 42.5498ZM59.658 42.5498C56.0808 42.5498 53.1809 45.9636 53.1809 50.1747C53.1809 54.3859 56.0808 57.7997 59.658 57.7997C63.2352 57.7997 66.1351 54.3859 66.1351 50.1747C66.1351 45.9636 63.2352 42.5498 59.658 42.5498Z" fill="white"/>
</svg>
