<svg width="83" height="72" viewBox="0 0 148 120" fill="none" xmlns="http://www.w3.org/2000/svg">
<g id="Group 729">
<path id="Vector" d="M147.254 104.944C147.283 109.218 144.887 113.296 140.673 116.143C136.458 118.99 130.832 120.331 125.221 119.827C115.125 118.697 107.727 112.051 107.973 104.333V15.5957C107.729 7.86903 115.146 1.21965 125.255 0.101161C130.86 -0.395118 136.477 0.950067 140.684 3.7959C144.89 6.64173 147.282 10.7151 147.254 14.9841V104.944Z" fill="#525B44"/>
<path id="Vector_2" d="M20.3864 90.2852C31.2335 90.2852 40.0268 96.9371 40.0268 105.143C40.0268 113.348 31.2335 120 20.3864 120C9.53938 120 0.746094 113.348 0.746094 105.143C0.746094 96.9371 9.53938 90.2852 20.3864 90.2852ZM72.0645 45.2542C61.166 45.7061 52.7103 52.6216 52.9631 60.8762V100.785C52.9631 111.616 59.2629 118.191 68.4935 119.592C74.2884 120.481 80.3042 119.351 84.8763 116.514C89.4484 113.678 92.092 109.437 92.0755 104.964V60.1881C92.085 56.1897 89.9711 52.3559 86.2084 49.5478C82.4456 46.7397 77.3495 45.1927 72.0645 45.2542Z" fill="#525B44"/>
</g>
</svg>
