<svg width="83" height="72" viewBox="0 0 108 120" fill="none" xmlns="http://www.w3.org/2000/svg">
<path id="Vector" d="M51.7531 119.568C51.4395 119.328 51.1755 118.226 51.165 117.118C51.1537 116.009 50.4359 113.905 49.5664 112.441C48.0278 109.848 46.4394 108.485 36.3218 101.07C32.1488 98.0133 30.3248 95.7942 23.7183 85.7388C15.0087 72.4824 12.4721 69.2873 5.61494 62.929C-0.985991 56.8088 -0.704255 54.3277 6.78709 52.6097C9.61804 51.9597 10.768 52.0297 14.2122 53.0297C19.0303 54.4388 25.8354 59.4299 29.3364 64.1231C30.6769 65.9211 32.5573 68.0532 33.515 68.8612C35.5309 70.5643 38.8106 70.8013 39.5641 69.3013C39.849 68.7312 40.0829 56.4138 40.0829 41.9253C40.0829 11.6193 39.7627 12.9063 47.4531 12.3413C51.1256 12.0713 52.0777 12.2413 54.2307 13.6774L56.7356 15.3274V28.4659C56.7356 37.3792 57.01 41.3193 57.5889 40.7183C59.9384 38.2812 64.9934 37.6602 69.1348 39.2992C72.3318 40.5643 73.381 42.1143 73.4147 45.6215C73.4409 48.0745 73.5859 48.2965 74.5516 47.3235C79.1199 42.7224 90.467 45.9455 90.467 51.8447V54.0917L92.7171 52.7377C95.3679 51.1416 97.1682 51.0506 101.113 52.3077C106.294 53.9637 106.519 54.8938 106.823 75.9555L107.097 94.9281L102.995 100.971C98.4546 107.66 96.8198 111.272 95.9659 116.502L95.3948 120H73.8589C62.0142 120 52.0662 119.808 51.7531 119.568ZM32.4756 32.09C27.1612 28.4169 24.727 24.1097 24.727 18.3785C24.727 -0.655126 57.2085 -7.06235 69.4571 9.55622C71.8145 12.7543 72.1046 13.7264 72.0899 18.3785C72.0769 22.7747 71.707 24.1427 69.7708 26.9718C67.717 29.9739 62.1275 34.3901 60.383 34.3901C58.6998 34.3901 59.9884 31.175 62.3638 29.4479C68.6157 24.9027 70.4992 17.3455 66.7624 11.7993C64.4786 8.40918 59.1497 4.71605 55.0478 3.67902C46.5712 1.53895 35.9874 4.49905 31.2775 10.3292C26.3666 16.4085 27.4063 23.5507 34.0441 29.3369C35.8004 30.8679 36.6925 32.266 36.5157 33.212C36.2517 34.6191 36.057 34.5651 32.4756 32.09ZM34.2396 23.3477C26.371 9.46522 52.3091 -0.638128 62.0451 12.5173C64.3632 15.6494 64.6062 20.4616 62.6083 23.6837C60.1628 27.6268 59.4106 27.1418 59.9757 21.9836C60.5899 16.3765 59.568 13.9404 55.504 11.3233C50.6148 8.17517 41.3508 9.39822 38.2147 13.6064C37.598 14.4364 36.9005 17.7585 36.6657 20.9936L36.2384 26.8758L34.2396 23.3477Z" fill="#525B44"/>
</svg>
