<svg width="114" height="120" viewBox="0 0 114 120" fill="none" xmlns="http://www.w3.org/2000/svg">
<path opacity="0.2" d="M0 109.474V113.685C0 117.184 3.46664 120 7.77273 120H106.227C110.533 120 114 117.184 114 113.685V109.474C114 112.973 110.533 115.79 106.227 115.79H7.77273C3.46664 115.79 0 112.973 0 109.474Z" fill="black"/>
<path d="M7.77273 0C3.46664 0 0 2.81684 0 6.31579V111.579C0 115.078 3.46664 117.895 7.77273 117.895H106.227C110.533 117.895 114 115.078 114 111.579V6.31579C114 2.81684 110.533 0 106.227 0H7.77273Z" fill="#525B44"/>
<path opacity="0.2" d="M7.77273 0C3.46664 0 0 2.81684 0 6.31579V111.579C0 115.078 3.46664 117.895 7.77273 117.895H20.7273V0H7.77273Z" fill="black"/>
<path opacity="0.2" d="M7.77273 0C3.46664 0 0 2.81684 0 6.31579V8.42105C0 4.9221 3.46664 2.10526 7.77273 2.10526H106.227C110.533 2.10526 114 4.9221 114 8.42105V6.31579C114 2.81684 110.533 0 106.227 0H7.77273Z" fill="white"/>
<path opacity="0.2" d="M93.2816 61.0413C93.2791 56.9459 91.8069 52.94 89.0453 49.5141C86.2836 46.0882 82.3525 43.3911 77.7331 41.7529V43.3075V61.0413H57.0016V43.3158V41.7694C52.3855 43.4064 48.4564 46.101 45.695 49.5237C42.9336 52.9463 41.4596 56.9487 41.4531 61.0413C41.4596 65.1338 42.9336 69.1362 45.695 72.5588C48.4564 75.9815 52.3855 78.6761 57.0016 80.3131V120H77.7331V80.3296C82.3525 78.6915 86.2836 75.9943 89.0453 72.5684C91.8069 69.1425 93.2791 65.1366 93.2816 61.0413Z" fill="black"/>
<path d="M93.2816 58.9353C93.2791 54.8399 91.8069 50.834 89.0453 47.4082C86.2836 43.9823 82.3525 41.2851 77.7331 39.647V41.2015V58.9353H57.0016V41.2098V39.6634C52.3855 41.3005 48.4564 43.9951 45.695 47.4177C42.9336 50.8404 41.4596 54.8427 41.4531 58.9353C41.4596 63.0279 42.9336 67.0302 45.695 70.4529C48.4564 73.8755 52.3855 76.5702 57.0016 78.2072V117.894H77.7331V78.2236C82.3525 76.5855 86.2836 73.8883 89.0453 70.4625C91.8069 67.0366 93.2791 63.0307 93.2816 58.9353Z" fill="white"/>
</svg>
