<svg width="126" height="120" viewBox="0 0 126 120" fill="none" xmlns="http://www.w3.org/2000/svg">
<g id="Group 738">
<path id="Vector" d="M79.332 85.1865C79.3307 82.0172 79.9292 78.8786 81.0934 75.9503C82.2576 73.0219 83.9646 70.3612 86.117 68.1201C88.2693 65.879 90.8247 64.1016 93.6372 62.8894C96.4496 61.6772 99.4639 61.054 102.508 61.0555C105.552 61.0537 108.566 61.6765 111.379 62.8884C114.191 64.1002 116.747 65.8774 118.899 68.1182C121.052 70.359 122.759 73.0195 123.924 75.9478C125.088 78.876 125.687 82.0145 125.686 85.1838H79.332V85.1865ZM115.494 41.0011C115.495 42.7738 115.16 44.5293 114.509 46.1672C113.858 47.8051 112.903 49.2933 111.699 50.5468C110.495 51.8003 109.066 52.7945 107.493 53.4725C105.92 54.1506 104.234 54.4992 102.531 54.4985C99.0937 54.4963 95.7974 53.0737 93.3664 50.543C90.9354 48.0123 89.5684 44.5804 89.5656 41.0011C89.5677 37.4213 90.9344 33.9888 93.3655 31.4575C95.7965 28.9262 99.0932 27.5031 102.531 27.501C105.969 27.5039 109.265 28.9272 111.695 31.4584C114.126 33.9896 115.492 37.4218 115.494 41.0011Z" fill="#525B44"/>
<path id="Vector_2" d="M39.709 120C39.7073 116.83 40.3056 113.691 41.4698 110.763C42.6341 107.834 44.3413 105.172 46.4939 102.931C48.6466 100.69 51.2024 98.9121 54.0153 97.6999C56.8282 96.4877 59.843 95.8647 62.8873 95.8664C65.9314 95.865 68.9459 96.4883 71.7585 97.7007C74.5711 98.913 77.1267 100.691 79.279 102.932C81.4314 105.173 83.1384 107.834 84.3025 110.763C85.4665 113.692 86.0648 116.831 86.0631 120H39.709ZM75.8739 75.8365C75.8746 77.6095 75.5397 79.3652 74.8883 81.0033C74.2369 82.6413 73.2819 84.1297 72.0777 85.3832C70.8736 86.6367 69.4439 87.6309 67.8706 88.3088C66.2972 88.9866 64.611 89.335 62.9082 89.3339C59.4711 89.3311 56.1755 87.9081 53.745 85.3775C51.3146 82.8468 49.9479 79.4154 49.9452 75.8365C49.9473 72.2572 51.3136 68.8251 53.7441 66.2939C56.1746 63.7627 59.4706 62.3393 62.9082 62.3364C64.6112 62.3354 66.2977 62.6838 67.8712 63.3619C69.4447 64.0399 70.8745 65.0343 72.0786 66.2881C73.2828 67.5419 74.2378 69.0306 74.889 70.669C75.5403 72.3074 75.8749 74.0634 75.8739 75.8365Z" fill="#525B44"/>
<path id="Vector_3" d="M39.709 57.6828C39.7076 54.5133 40.3062 51.3745 41.4706 48.446C42.635 45.5174 44.3422 42.8565 46.4949 40.6154C48.6475 38.3743 51.2032 36.597 54.0159 35.3849C56.8287 34.1729 59.8432 33.55 62.8873 33.5518C65.9314 33.5503 68.9459 34.1736 71.7585 35.386C74.5711 36.5984 77.1267 38.376 79.279 40.6174C81.4314 42.8587 83.1384 45.5198 84.3025 48.4485C85.4665 51.3771 86.0648 54.516 86.0631 57.6856H39.709V57.6828ZM75.8739 13.4974C75.8749 15.2706 75.5403 17.0265 74.889 18.6649C74.2378 20.3033 73.2828 21.792 72.0786 23.0458C70.8745 24.2996 69.4447 25.294 67.8712 25.9721C66.2977 26.6501 64.6112 26.9986 62.9082 26.9975C59.4706 26.9946 56.1746 25.5713 53.7441 23.0401C51.3136 20.5089 49.9473 17.0767 49.9452 13.4974C49.9431 9.92077 51.3053 6.4897 53.7323 3.9586C56.1593 1.4275 59.4523 0.00360482 62.8873 0C70.0414 0 75.8739 6.05112 75.8739 13.4974Z" fill="#525B44"/>
<path id="Vector_4" d="M0.312502 85.1865C0.311129 82.017 0.909736 78.8782 2.0741 75.9496C3.23847 73.0211 4.94576 70.3602 7.09838 68.1191C9.25099 65.878 11.8067 64.1007 14.6195 62.8886C17.4322 61.6766 20.4468 61.0537 23.4908 61.0555C26.5347 61.054 29.549 61.6772 32.3614 62.8894C35.1739 64.1016 37.7293 65.879 39.8816 68.1201C42.034 70.3612 43.741 73.0219 44.9052 75.9503C46.0694 78.8786 46.668 82.0172 46.6666 85.1865H0.312502ZM36.4748 41.0011C36.4755 42.7738 36.1407 44.5293 35.4894 46.1672C34.8382 47.8051 33.8834 49.2933 32.6795 50.5468C31.4757 51.8003 30.0464 52.7945 28.4733 53.4725C26.9002 54.1506 25.2143 54.4992 23.5117 54.4985C20.0741 54.4963 16.7779 53.0737 14.3468 50.543C11.9158 48.0123 10.5488 44.5804 10.5461 41.0011C10.5447 39.2297 10.8784 37.4753 11.5282 35.8382C12.178 34.201 13.1312 32.7132 14.3332 31.4596C15.5352 30.206 16.9626 29.2112 18.5339 28.5319C20.1052 27.8527 21.7895 27.5024 23.4908 27.501C26.9306 27.5031 30.2292 28.9255 32.6631 31.4563C35.0971 33.987 36.4679 37.4196 36.4748 41.0011Z" fill="#525B44"/>
</g>
</svg>
