<svg width="83" height="72" viewBox="0 0 154 137" fill="none" xmlns="http://www.w3.org/2000/svg">
<path d="M52.0383 105.727C71.3891 88.4548 83.2703 71.0565 78.5757 66.8666C73.8811 62.6766 54.3885 73.2816 35.0377 90.5536C15.6869 107.825 3.80572 125.224 8.50031 129.414C13.1949 133.604 32.6875 122.999 52.0383 105.727Z" fill="#DD5900"/>
<path d="M48.7187 102.766C62.688 90.2974 71.6916 78.1184 68.829 75.5635C65.9663 73.0085 52.3214 81.0451 38.3521 93.5136C24.3829 105.982 15.3792 118.161 18.2419 120.716C21.1046 123.271 34.7495 115.234 48.7187 102.766Z" fill="#FCD116"/>
<path d="M154.001 48.4152C154.021 46.9556 153.72 45.5067 153.113 44.1512C152.506 42.7957 151.606 41.5602 150.464 40.5152C149.322 39.4702 147.961 38.6361 146.458 38.0607C144.955 37.4852 143.34 37.1796 141.704 37.1614H139.925C140.641 34.5915 141.035 31.9584 141.098 29.3107C141.025 13.1501 126.367 0.0651639 108.26 0C101.42 0.0724667 94.7705 2.0193 89.2113 5.57688C83.6521 9.13445 79.4521 14.1309 77.1801 19.8897C74.796 19.2658 72.333 18.9138 69.8499 18.8422C57.2192 19.1272 47.2388 28.4978 47.5582 39.7712C47.8667 50.6438 57.6683 59.3937 69.8499 59.6674H142.272C145.432 59.3991 148.372 58.1051 150.534 56.0307C152.695 53.9564 153.929 51.2476 154.001 48.4152Z" fill="#BBBCBF"/>
<path opacity="0.2" d="M81.5789 59.4065C78.4185 56.7463 76.2664 53.2725 75.4224 49.469C72.4217 38.9418 79.5511 28.2354 91.3476 25.5571C94.0943 24.9332 96.9501 24.7882 99.7583 25.1303C100.222 20.0954 102.177 15.261 105.423 11.1223C108.668 6.98357 113.088 3.68926 118.23 1.5768C115.002 0.652579 111.648 0.124259 108.26 0.00634766C101.42 0.0788144 94.7705 2.02565 89.2113 5.58323C83.6521 9.1408 79.4521 14.1373 77.1801 19.896C74.796 19.2721 72.333 18.9202 69.8499 18.8485C57.2192 19.1336 47.2388 28.5042 47.5582 39.7775C47.8667 50.6501 57.6683 59.4 69.8499 59.6737H81.5789V59.4065Z" fill="white"/>
<path d="M21.1758 56.2661V80.3426L32.6109 90.2866H59.5862V56.2661H21.1758Z" fill="#525B44"/>
<path d="M90.9572 118.288H63.982L52.5469 108.344V84.2677L90.9572 84.0054V118.288Z" fill="#525B44"/>
<path d="M26.5625 84.9496L65.5405 50.1602L97.0533 78.2882L58.0753 113.076L26.5625 84.9496Z" fill="#E5E5E5"/>
<path d="M58.2463 113.201L38.3073 119.744L19.25 102.732L26.5802 84.9378L58.2463 113.201ZM65.7407 50.2462C85.0883 32.9777 112.947 36.1137 112.947 36.1137C112.947 36.1137 116.758 60.9754 97.113 78.5094L65.7407 50.2462Z" fill="#525B44"/>
<path d="M68.0858 84.0061C72.7823 84.0061 76.5896 80.608 76.5896 76.4161C76.5896 72.2243 72.7823 68.8262 68.0858 68.8262C63.3893 68.8262 59.582 72.2243 59.582 76.4161C59.582 80.608 63.3893 84.0061 68.0858 84.0061Z" fill="#525B44"/>
<path opacity="0.15" d="M112.658 35.8527C107.967 35.5904 83.3372 34.5494 65.7492 50.2458L59.005 56.2653H21.1805V80.3417L26.4591 85.0531L19.1289 102.849L28.5125 111.225L112.658 35.8527Z" fill="white"/>
</svg>
