<svg width="16" height="16" viewBox="0 0 17 20" fill="none" xmlns="http://www.w3.org/2000/svg">
<g id="Group">
<path id="Vector" d="M13.6315 10.2574C13.6579 13.1555 16.1294 14.12 16.1568 14.1323C16.1359 14.2003 15.7619 15.5067 14.8547 16.8561C14.0704 18.0228 13.2565 19.1851 11.9743 19.2092C10.7144 19.2328 10.3093 18.4488 8.8689 18.4488C7.42893 18.4488 6.97882 19.1851 5.7862 19.2328C4.54856 19.2805 3.60611 17.9713 2.81535 16.8089C1.19953 14.4312 -0.0352944 10.0902 1.62276 7.15992C2.44644 5.70473 3.91843 4.78325 5.51614 4.75962C6.73148 4.73602 7.87861 5.59182 8.62156 5.59182C9.36403 5.59182 10.758 4.56265 12.2235 4.71379C12.837 4.73978 14.5591 4.96603 15.6649 6.61346C15.5758 6.66968 13.6101 7.8344 13.6315 10.2574ZM11.2637 3.14077C11.9207 2.33124 12.363 1.2043 12.2423 0.0830078C11.2952 0.121752 10.1499 0.725385 9.47057 1.53447C8.86174 2.25095 8.32855 3.39772 8.47241 4.49682C9.52809 4.57995 10.6065 3.95081 11.2637 3.14077Z" fill="black"/>
</g>
</svg>
