<svg width="16" height="16" viewBox="0 0 17 20" fill="none" xmlns="http://www.w3.org/2000/svg">
<path id="Vector" fill-rule="evenodd" clip-rule="evenodd" d="M12.6359 7.00504C12.3207 7.00504 12.0649 6.75057 12.0649 6.43673C12.0649 6.25061 12.156 6.08699 12.2951 5.98323C12.3904 5.91203 12.5076 5.86852 12.6359 5.86852C12.8031 5.86852 12.952 5.94117 13.0563 6.05511C13.1489 6.15606 13.207 6.28925 13.207 6.43676C13.207 6.75057 12.9514 7.00504 12.6359 7.00504ZM6.31541 5.30006V4.19051C6.31541 2.54955 7.65662 1.21472 9.30529 1.21472C10.9537 1.21472 12.2951 2.54955 12.2951 4.19051V5.30006H6.31541ZM5.9745 7.00504C5.65919 7.00504 5.40362 6.75057 5.40362 6.43673C5.40362 6.28922 5.46152 6.15602 5.55413 6.05508C5.65858 5.94117 5.80746 5.86848 5.97447 5.86848C6.10278 5.86848 6.22005 5.91203 6.31535 5.9832C6.45444 6.08696 6.54552 6.25057 6.54552 6.4367C6.54559 6.75057 6.28988 7.00504 5.9745 7.00504ZM13.0563 5.30006V4.19051C13.0563 2.13186 11.3734 0.457031 9.30529 0.457031C7.23704 0.457031 5.55417 2.13186 5.55417 4.19051V5.30006H2.45363V7.82933H5.97454C6.28992 7.82933 6.54559 8.08381 6.54559 8.39764V8.56143C6.54559 8.8754 6.28988 9.12992 5.97454 9.12992H1.69231C1.37704 9.12992 1.1214 9.38426 1.1214 9.69813C1.1214 10.012 1.37704 10.2666 1.69231 10.2666H4.98318C5.29853 10.2666 5.55417 10.5209 5.55417 10.8347V10.8979C5.55417 11.2116 5.29853 11.4662 4.98318 11.4662H2.45363V11.4773C2.05121 11.5319 1.73991 11.8716 1.73991 12.2872C1.73991 12.7025 2.05121 13.0422 2.45363 13.0969V13.1079H6.22501C6.54032 13.1079 6.79593 13.3623 6.79593 13.6764C6.79593 13.9899 6.54032 14.2445 6.22501 14.2445H1.43858C1.10565 14.2445 0.835938 14.513 0.835938 14.8443C0.835938 15.1758 1.10562 15.4442 1.43858 15.4442H4.73761C5.05295 15.4442 5.30849 15.6987 5.30849 16.0127V16.0768C5.30849 16.3907 5.05295 16.6451 4.73761 16.6451H2.51942C2.80134 17.9559 3.97082 19.6081 5.37193 19.6081H13.2386C14.8504 19.6081 16.1568 17.6389 16.1568 16.0347V5.30006H13.0563Z" fill="#525B44"/>
</svg>
