<svg width="14" height="14" viewBox="0 0 22 17" fill="none" xmlns="http://www.w3.org/2000/svg">
<path d="M0 15.4943V1.50571C0 1.48952 0.021215 1.33571 0.0636451 1.04429L7.25554 8.08714L0.0848602 15.98C0.0282867 15.7533 0 15.5914 0 15.4943ZM0.954677 0.0728571C1.05368 0.0242857 1.1739 0 1.31533 0H20.6847C20.812 0 20.9392 0.0242857 21.0665 0.0728571L13.8534 7.14L12.8987 8.01429L11.0106 9.78714L9.12247 8.01429L8.16779 7.14L0.954677 0.0728571ZM0.975892 16.9271L8.21022 8.98571L11.0106 11.5843L13.811 8.98571L21.0453 16.9271C20.9322 16.9757 20.812 17 20.6847 17H1.31533C1.20219 17 1.08904 16.9757 0.975892 16.9271ZM14.7657 8.08714L21.9364 1.04429C21.9788 1.19 22 1.34381 22 1.50571V15.4943C22 15.64 21.9788 15.8019 21.9364 15.98L14.7657 8.08714Z" fill="#525B44"/>
</svg>
