<svg width="16" height="16" viewBox="0 0 17 17" fill="none" xmlns="http://www.w3.org/2000/svg">
<g id="Group">
<path id="Vector" d="M16.1568 8.44266C16.1568 4.21192 12.7271 0.782227 8.49637 0.782227C4.26563 0.782227 0.835938 4.21192 0.835938 8.44266C0.835938 12.2662 3.63725 15.4354 7.29943 16.01V10.657H5.3544V8.44266H7.29943V6.75497C7.29943 4.83508 8.44308 3.77458 10.1929 3.77458C11.031 3.77458 11.9077 3.9242 11.9077 3.9242V5.80939H10.9417C9.99008 5.80939 9.69332 6.39988 9.69332 7.00569V8.44266H11.8179L11.4783 10.657H9.69332V16.01C13.3555 15.4354 16.1568 12.2662 16.1568 8.44266Z" fill="#1877F2"/>
<path id="Vector_2" d="M11.4832 10.6568L11.8229 8.44249H9.69829V7.00552C9.69829 6.39971 9.99506 5.80922 10.9467 5.80922H11.9126V3.92403C11.9126 3.92403 11.036 3.77441 10.1979 3.77441C8.44806 3.77441 7.30441 4.83491 7.30441 6.7548V8.44249H5.35938V10.6568H7.30441V16.0099C7.69442 16.0711 8.09415 16.1029 8.50135 16.1029C8.90855 16.1029 9.30828 16.0711 9.69829 16.0099V10.6568H11.4832Z" fill="white"/>
</g>
</svg>
