<svg width="16" height="16" viewBox="0 0 16 16" fill="none" xmlns="http://www.w3.org/2000/svg">
<g id="Group">
<path id="Vector" d="M15.3217 8.39914C15.3217 7.76929 15.2695 7.30966 15.1566 6.83301H7.81641V9.67588H12.125C12.0381 10.3824 11.569 11.4463 10.5266 12.1613L10.512 12.2564L12.8329 14.0182L12.9936 14.0339C14.4704 12.6975 15.3217 10.7313 15.3217 8.39914Z" fill="#4285F4"/>
<path id="Vector_2" d="M7.82055 15.8876C9.93153 15.8876 11.7037 15.2066 12.9982 14.0321L10.531 12.1595C9.87074 12.6106 8.98462 12.9255 7.82055 12.9255C5.75298 12.9255 3.99816 11.5892 3.37262 9.74219L3.28092 9.74982L0.867499 11.5798L0.835938 11.6658C2.12164 14.1682 4.76259 15.8876 7.82055 15.8876Z" fill="#34A853"/>
<path id="Vector_3" d="M3.37039 9.74403C3.20535 9.26738 3.10983 8.75664 3.10983 8.22894C3.10983 7.70119 3.20535 7.1905 3.36171 6.71386L3.35733 6.61234L0.913846 4.75293L0.833899 4.79019C0.304036 5.82863 0 6.99475 0 8.22894C0 9.46313 0.304036 10.6292 0.833899 11.6676L3.37039 9.74403Z" fill="#FBBC05"/>
<path id="Vector_4" d="M7.82054 3.52943C9.28867 3.52943 10.279 4.15078 10.8437 4.67002L13.0503 2.55912C11.6951 1.32493 9.93153 0.567383 7.82054 0.567383C4.76259 0.567383 2.12164 2.28673 0.835938 4.78914L3.36393 6.71281C3.99816 4.86578 5.75298 3.52943 7.82054 3.52943Z" fill="#EB4335"/>
</g>
</svg>
