<svg width="24" height="23" viewBox="0 0 24 23" fill="none" xmlns="http://www.w3.org/2000/svg">
<g id="Group 187">
<path id="Vector" d="M24 11.5019C24 12.2044 23.941 12.8919 23.8304 13.5606C23.7899 13.8085 23.5797 13.9926 23.3327 13.9964C21.9207 14.0189 20.5567 14.774 19.7972 16.1077C19.0415 17.4413 19.082 19.0192 19.7604 20.2739C19.8783 20.4956 19.8267 20.7698 19.6387 20.9314C18.6212 21.7879 17.4599 22.4792 16.1991 22.96C15.9668 23.0464 15.7051 22.9563 15.576 22.7384C14.8498 21.5099 13.53 20.6834 12.0184 20.6834C10.5032 20.6834 9.17972 21.5099 8.45346 22.7459C8.32811 22.9638 8.06636 23.0539 7.8341 22.9675C6.56221 22.4867 5.38986 21.7917 4.36129 20.9276C4.16959 20.7661 4.11797 20.4918 4.23963 20.2702C4.92166 19.0154 4.95853 17.4376 4.20276 16.1039C3.447 14.7665 2.07926 14.0114 0.667281 13.9926C0.420277 13.9889 0.210138 13.8048 0.169585 13.5568C0.0589862 12.8881 0 12.2006 0 11.4981C0 10.7956 0.0589862 10.1081 0.169585 9.43941C0.210138 9.19147 0.420277 9.00738 0.667281 9.00363C2.07926 8.98109 3.44332 8.22598 4.20276 6.89232C4.95853 5.55867 4.91797 3.98083 4.23963 2.72607C4.12166 2.50442 4.17327 2.23018 4.36129 2.06863C5.3788 1.21209 6.54009 0.520847 7.80092 0.0399806C8.03318 -0.046425 8.29493 0.0437374 8.42396 0.26163C9.15023 1.49385 10.47 2.31658 11.9816 2.31658C13.4968 2.31658 14.8203 1.49009 15.5465 0.254116C15.6719 0.0362239 15.9336 -0.0539385 16.1659 0.0324671C17.4378 0.513333 18.6101 1.20834 19.6387 2.07239C19.8304 2.23393 19.882 2.50818 19.7604 2.72983C19.0783 3.98459 19.0415 5.56243 19.7972 6.89608C20.553 8.23349 21.9207 8.9886 23.3327 9.00739C23.5797 9.01114 23.7899 9.19522 23.8304 9.44317C23.941 10.1119 24 10.7994 24 11.5019Z" fill="url(#paint0_linear_2483_34)"/>
<path id="Vector_2" d="M12.002 17.682C15.3514 17.682 18.0665 14.9152 18.0665 11.5021C18.0665 8.08909 15.3514 5.32227 12.002 5.32227C8.65268 5.32227 5.9375 8.08909 5.9375 11.5021C5.9375 14.9152 8.65268 17.682 12.002 17.682Z" fill="url(#paint1_linear_2483_34)"/>
<path id="Vector_3" d="M11.999 15.7281C14.2896 15.7281 16.1465 13.8359 16.1465 11.5018C16.1465 9.1676 14.2896 7.27539 11.999 7.27539C9.70845 7.27539 7.85156 9.1676 7.85156 11.5018C7.85156 13.8359 9.70845 15.7281 11.999 15.7281Z" fill="url(#paint2_linear_2483_34)"/>
</g>
<defs>
<linearGradient id="paint0_linear_2483_34" x1="12" y1="23.0064" x2="12" y2="-0.00134394" gradientUnits="userSpaceOnUse">
<stop offset="1" stop-color="#525B44"/>
</linearGradient>
<linearGradient id="paint1_linear_2483_34" x1="12.002" y1="17.6827" x2="12.002" y2="5.32291" gradientUnits="userSpaceOnUse">
<stop offset="7.5726e-08" stop-color="white"/>
</linearGradient>
<linearGradient id="paint2_linear_2483_34" x1="9.06633" y1="8.51391" x2="15.0422" y2="14.3783" gradientUnits="userSpaceOnUse">
<stop offset="1" stop-color="#525B44"/>
</linearGradient>
</defs>
</svg>
