<svg width="44" height="57" viewBox="0 0 44 57" fill="none" xmlns="http://www.w3.org/2000/svg">
<g id="Group 191">
<path id="Vector" d="M2.40725 9.5L6.16957 52.6508C6.16957 55.0555 8.25797 57 10.8406 57H33.3188C35.9015 57 37.9899 55.0555 37.9899 52.6508L41.7043 9.5H2.40725ZM12.2275 48.8359L11.1594 14.25H14.1087L15.2087 48.8359H12.2275ZM23.4348 48.8359H20.5652V14.25H23.4348V48.8359ZM31.7725 48.8359H28.8072L29.8913 14.25H32.8406L31.7725 48.8359ZM39.2174 4.15625H33.4783L29.2855 0.742188C28.6957 0.267188 27.9464 0 27.1812 0H16.8507C16.0696 0 15.3043 0.267188 14.7145 0.742188L10.5217 4.15625H4.78261C1.97681 4.15625 0 5.40312 0 8.01562H44C44 5.40312 42.0232 4.15625 39.2174 4.15625Z" fill="#525B44"/>
</g>
</svg>
