<svg width="48" height="57" viewBox="0 0 48 57" fill="none" xmlns="http://www.w3.org/2000/svg">
<g id="Group 190">
<g id="Group">
<path id="Vector" d="M32.3235 37.1733C31.7478 37.1733 31.2801 37.7292 31.2801 38.4134V50.814C31.2801 52.8665 29.8768 54.5199 28.1617 54.5199H5.21734C3.49022 54.5199 2.08694 52.8522 2.08694 50.814V6.20035C2.08694 4.14784 3.49022 2.48017 5.21734 2.48017H28.1617C29.8888 2.48017 31.2801 4.14784 31.2801 6.20035V18.6009C31.2801 19.2851 31.7478 19.841 32.3235 19.841C32.8992 19.841 33.367 19.2851 33.367 18.6009V6.20035C33.367 2.7795 31.0282 5.45774e-05 28.1497 5.45774e-05H5.21734C2.33881 -0.014199 0 2.76524 0 6.18609V50.7997C0 54.2206 2.33881 57 5.21734 57H28.1617C31.0402 57 33.379 54.2206 33.379 50.7997V38.3991C33.367 37.7292 32.9112 37.1733 32.3235 37.1733Z" fill="#525B44"/>
<path id="Vector_2" d="M47.8106 29.176C47.8106 29.1618 47.8226 29.1618 47.8226 29.1475C47.8346 29.119 47.8586 29.0905 47.8586 29.062C47.8586 29.0477 47.8706 29.0335 47.8706 29.0335C47.8826 29.005 47.8946 28.9907 47.9066 28.948C47.9066 28.9337 47.9186 28.9195 47.9186 28.9052C47.9306 28.8767 47.9426 28.8624 47.9426 28.8197C47.9426 28.8054 47.9546 28.7912 47.9546 28.7769C47.9666 28.7484 47.9666 28.7342 47.9786 28.6914C47.9786 28.6771 47.9786 28.6486 47.9906 28.6486C47.9906 28.6201 48.0026 28.6059 48.0026 28.5774C48.0026 28.5346 48.0026 28.5204 48.0026 28.4776C48.0026 28.4633 48.0026 28.4491 48.0026 28.4491C48.0026 28.4348 48.0026 28.4206 48.0026 28.4206C48.0026 28.3778 48.0026 28.3636 48.0026 28.3208C48.0026 28.2923 47.9906 28.2781 47.9906 28.2495C47.9906 28.2353 47.9906 28.2068 47.9786 28.2068C47.9786 28.1783 47.9666 28.164 47.9546 28.1213C47.9546 28.107 47.9426 28.0928 47.9426 28.0785C47.9306 28.05 47.9186 28.0357 47.9186 27.993C47.9186 27.9787 47.9066 27.9645 47.9066 27.9502C47.8946 27.9217 47.8826 27.8932 47.8706 27.8647C47.8706 27.8504 47.8586 27.8362 47.8586 27.8362C47.8466 27.8077 47.8226 27.7792 47.8226 27.7507C47.8226 27.7364 47.8106 27.7364 47.8106 27.7222C47.7747 27.6509 47.7147 27.5796 47.6667 27.5226L39.331 17.6164C38.9232 17.1318 38.2635 17.1318 37.8557 17.6164C37.4479 18.101 37.4479 18.885 37.8557 19.3696L44.4284 27.1805H19.8169C19.2412 27.1805 18.7734 27.7364 18.7734 28.4206C18.7734 29.1048 19.2412 29.6606 19.8169 29.6606H44.4164L37.8557 37.4858C37.4479 37.9705 37.4479 38.7544 37.8557 39.239C38.0596 39.4813 38.3235 39.6096 38.5993 39.6096C38.8752 39.6096 39.1271 39.4956 39.343 39.239L47.6787 29.3328C47.7147 29.3186 47.7627 29.2473 47.8106 29.176Z" fill="#525B44"/>
</g>
</g>
</svg>
