<svg width="20" height="23" viewBox="0 0 20 23" fill="none" xmlns="http://www.w3.org/2000/svg">
<g id="Group 1708">
<path id="Vector" d="M13.6875 5.69261H19.6743C19.8586 5.69261 20.0033 5.56611 20.0033 5.40511C20.0033 4.89336 19.7467 4.41036 19.2993 4.08836L14.2796 0.431359C13.898 0.155359 13.4243 0.00585938 12.9243 0.00585938C12.6546 0.00585938 12.4375 0.195609 12.4375 0.431359V4.60011C12.4375 5.20386 12.9967 5.69261 13.6875 5.69261Z" fill="#525B44"/>
<path id="Vector_2" d="M10.7237 4.6V0H2.10526C0.947368 0 0 0.828 0 1.84V21.16C0 22.172 0.947368 23 2.10526 23H17.8947C19.0526 23 20 22.172 20 21.16V7.1875H13.6842C12.0526 7.1875 10.7237 6.026 10.7237 4.6Z" fill="#525B44"/>
</g>
</svg>
